<svg width="134" height="44" viewBox="0 0 134 44" fill="none" xmlns="http://www.w3.org/2000/svg">
<path d="M12.9306 28V10.72H16.3386V28H12.9306ZM14.8026 28V25.024H24.4266V28H14.8026ZM14.8026 20.584V17.728H22.9146V20.584H14.8026ZM14.8026 13.696V10.72H24.1866V13.696H14.8026ZM26.5499 21.4C26.5499 19.88 26.8619 18.616 27.4859 17.608C28.1099 16.6 28.9739 15.848 30.0779 15.352C31.1819 14.84 32.4619 14.584 33.9179 14.584C35.0699 14.584 36.0459 14.736 36.8459 15.04V17.8H36.6059C36.3179 17.656 35.9659 17.536 35.5499 17.44C35.1499 17.344 34.6939 17.296 34.1819 17.296C32.8699 17.296 31.8379 17.648 31.0859 18.352C30.3499 19.04 29.9819 20.056 29.9819 21.4C29.9819 22.744 30.3499 23.768 31.0859 24.472C31.8379 25.16 32.8699 25.504 34.1819 25.504C34.6939 25.504 35.1499 25.456 35.5499 25.36C35.9659 25.264 36.3179 25.144 36.6059 25H36.8459V27.76C36.0459 28.08 35.0699 28.24 33.9179 28.24C32.4139 28.24 31.1099 27.992 30.0059 27.496C28.9179 26.984 28.0699 26.224 27.4619 25.216C26.8539 24.192 26.5499 22.92 26.5499 21.4ZM38.9249 21.4C38.9249 19.912 39.1969 18.664 39.7409 17.656C40.2849 16.632 41.0449 15.864 42.0209 15.352C42.9969 14.84 44.1169 14.584 45.3809 14.584C46.6289 14.584 47.7409 14.84 48.7169 15.352C49.6929 15.864 50.4529 16.632 50.9969 17.656C51.5409 18.664 51.8129 19.912 51.8129 21.4C51.8129 22.904 51.5409 24.16 50.9969 25.168C50.4529 26.176 49.6929 26.944 48.7169 27.472C47.7409 27.984 46.6289 28.24 45.3809 28.24C44.1009 28.24 42.9729 27.984 41.9969 27.472C41.0369 26.944 40.2849 26.176 39.7409 25.168C39.1969 24.16 38.9249 22.904 38.9249 21.4ZM42.3569 21.4C42.3569 22.808 42.6129 23.872 43.1249 24.592C43.6369 25.296 44.3889 25.648 45.3809 25.648C46.3569 25.648 47.1009 25.296 47.6129 24.592C48.1249 23.872 48.3809 22.808 48.3809 21.4C48.3809 19.992 48.1249 18.936 47.6129 18.232C47.1009 17.512 46.3569 17.152 45.3809 17.152C44.3889 17.152 43.6369 17.512 43.1249 18.232C42.6129 18.936 42.3569 19.992 42.3569 21.4ZM55.2415 28V10.72H57.5455V25.984H64.9375V28H55.2415ZM67.2402 21.424C67.2402 20 67.4882 18.784 67.9842 17.776C68.4962 16.768 69.2002 16 70.0962 15.472C71.0082 14.928 72.0562 14.656 73.2402 14.656C74.4242 14.656 75.4642 14.928 76.3602 15.472C77.2722 16 77.9762 16.768 78.4722 17.776C78.9842 18.784 79.2402 20 79.2402 21.424C79.2402 22.848 78.9842 24.064 78.4722 25.072C77.9762 26.08 77.2722 26.856 76.3602 27.4C75.4642 27.928 74.4242 28.192 73.2402 28.192C72.0242 28.192 70.9682 27.928 70.0722 27.4C69.1762 26.856 68.4802 26.08 67.9842 25.072C67.4882 24.064 67.2402 22.848 67.2402 21.424ZM69.4962 21.424C69.4962 23.024 69.8162 24.232 70.4562 25.048C71.1122 25.864 72.0402 26.272 73.2402 26.272C74.4402 26.272 75.3602 25.864 76.0002 25.048C76.6562 24.232 76.9842 23.024 76.9842 21.424C76.9842 19.808 76.6562 18.6 76.0002 17.8C75.3602 16.984 74.4402 16.576 73.2402 16.576C72.0402 16.576 71.1122 16.984 70.4562 17.8C69.8162 18.6 69.4962 19.808 69.4962 21.424ZM88.5383 28.288C87.0983 28.288 85.8743 28.016 84.8663 27.472C83.8743 26.912 83.1143 26.12 82.5863 25.096C82.0743 24.072 81.8183 22.848 81.8183 21.424C81.8183 20 82.1063 18.784 82.6823 17.776C83.2583 16.768 84.0663 16 85.1063 15.472C86.1463 14.928 87.3543 14.656 88.7303 14.656C89.2903 14.656 89.7863 14.696 90.2183 14.776C90.6663 14.856 91.0263 14.96 91.2983 15.088L91.2023 17.008C91.0263 16.928 90.7383 16.84 90.3383 16.744C89.9543 16.632 89.4663 16.576 88.8743 16.576C87.3223 16.576 86.1303 16.992 85.2983 17.824C84.4823 18.656 84.0743 19.856 84.0743 21.424C84.0743 22.56 84.2503 23.496 84.6023 24.232C84.9703 24.952 85.4983 25.488 86.1863 25.84C86.8743 26.192 87.7223 26.368 88.7303 26.368C89.2903 26.368 89.7943 26.32 90.2423 26.224C90.7063 26.112 91.1143 25.976 91.4663 25.816L91.0823 26.488C91.0183 26.216 90.9703 25.896 90.9383 25.528C90.9063 25.144 90.8903 24.752 90.8903 24.352V13.888C90.8903 13.568 90.8823 13.152 90.8663 12.64C90.8663 12.128 90.8503 11.624 90.8183 11.128C90.8023 10.632 90.7623 10.24 90.6983 9.952L90.7463 9.76H93.0983V23.2C93.0983 23.52 93.0983 23.936 93.0983 24.448C93.1143 24.96 93.1303 25.464 93.1463 25.96C93.1783 26.456 93.2263 26.848 93.2903 27.136L93.2423 27.328C92.5703 27.584 91.8423 27.808 91.0583 28C90.2903 28.192 89.4503 28.288 88.5383 28.288ZM101.454 33.76C100.878 33.76 100.246 33.704 99.5583 33.592C98.8703 33.496 98.2863 33.344 97.8063 33.136V31.168H97.9983C98.5263 31.408 99.1023 31.576 99.7263 31.672C100.366 31.784 100.942 31.84 101.454 31.84C102.494 31.84 103.326 31.688 103.95 31.384C104.574 31.08 105.022 30.616 105.294 29.992C105.582 29.368 105.726 28.576 105.726 27.616V18.4C105.726 18.016 105.734 17.656 105.75 17.32C105.782 16.984 105.822 16.664 105.87 16.36L106.278 17.032C105.926 16.92 105.526 16.816 105.078 16.72C104.646 16.624 104.174 16.576 103.662 16.576C102.606 16.576 101.726 16.76 101.022 17.128C100.318 17.48 99.7903 18.016 99.4383 18.736C99.0863 19.44 98.9103 20.32 98.9103 21.376C98.9103 22.912 99.3023 24.064 100.086 24.832C100.886 25.6 102.078 25.984 103.662 25.984C104.11 25.984 104.534 25.952 104.934 25.888C105.334 25.824 105.774 25.696 106.254 25.504L106.206 27.52C105.662 27.648 105.182 27.744 104.766 27.808C104.35 27.872 103.95 27.904 103.566 27.904C102.19 27.904 100.982 27.664 99.9423 27.184C98.9023 26.688 98.0943 25.96 97.5183 25C96.9423 24.024 96.6543 22.816 96.6543 21.376C96.6543 20.336 96.8063 19.408 97.1103 18.592C97.4303 17.76 97.8943 17.056 98.5023 16.48C99.1103 15.888 99.8463 15.44 100.71 15.136C101.574 14.816 102.558 14.656 103.662 14.656C104.382 14.656 105.142 14.744 105.942 14.92C106.742 15.08 107.454 15.28 108.078 15.52L108.126 15.712C108.062 16 108.014 16.392 107.982 16.888C107.966 17.384 107.95 17.888 107.934 18.4C107.934 18.912 107.934 19.328 107.934 19.648V27.616C107.934 28.896 107.678 29.992 107.166 30.904C106.67 31.832 105.934 32.536 104.958 33.016C103.998 33.512 102.83 33.76 101.454 33.76ZM113.41 33.568V33.28L116.386 25.984L120.61 14.944H122.818V15.232L115.522 33.568H113.41ZM115.81 28.48L110.53 15.232V14.944H112.834L117.082 26.032L115.81 28.48Z" fill="#4CAF4F"/>
</svg>
